<?xml version="1.0" standalone="no"?>
<!DOCTYPE svg PUBLIC "-//W3C//DTD SVG 1.1//EN" "http://www.w3.org/Graphics/SVG/1.1/DTD/svg11.dtd">
<svg xmlns="http://www.w3.org/2000/svg">
<metadata>Copyright (C) 2017 by original authors @ fontello.com</metadata>
<defs>
<font id="jeban-iconset" horiz-adv-x="1000" >
<font-face font-family="jeban-iconset" font-weight="400" font-stretch="normal" units-per-em="1000" ascent="850" descent="-150" />
<missing-glyph horiz-adv-x="1000" />
<glyph glyph-name="back" unicode="&#xe800;" d="M773-98a25 25 0 0 0-33-37l-513 467a25 25 0 0 0 0 37l513 466a25 25 0 1 0 33-37l-492-448z" horiz-adv-x="1000" />

<glyph glyph-name="beautycheck" unicode="&#xe801;" d="M969 589a23 23 0 0 0-12-21 205 205 0 0 1-36-24 384 384 0 0 1-25-51 23 23 0 0 0-21-14h-1a23 23 0 0 0-21 16 234 234 0 0 1-20 44 330 330 0 0 1-41 29 23 23 0 0 0 2 41 248 248 0 0 1 42 23 231 231 0 0 1 17 48 23 23 0 0 0 44 2 318 318 0 0 1 22-52 208 208 0 0 1 37-21 23 23 0 0 0 13-20z m-195-132a165 165 0 0 0-24 13 264 264 0 0 0-15 35 23 23 0 0 1-44-2 189 189 0 0 0-11-32 206 206 0 0 0-27-14 23 23 0 0 1-3-42 254 254 0 0 0 29-19 187 187 0 0 0 12-29 23 23 0 0 1 21-16h1a23 23 0 0 1 22 14 318 318 0 0 0 16 35 156 156 0 0 0 24 15 23 23 0 0 1-1 42z m20-172l19-93a25 25 0 0 0-19-29l-525-109a25 25 0 0 0-29 20l-97 469a25 25 0 0 0 20 30l524 108a25 25 0 0 0 30-20l16-77a25 25 0 1 0-50-10l-10 53-476-98 86-421 90 19a56 56 0 0 0-4 16c-5 68 15 128 50 166a120 120 0 1 0 153 42 122 122 0 0 0-10-13c48-21 89-69 112-133a57 57 0 0 0 3-16l82 17-14 69a25 25 0 1 0 49 10z m-392 119a71 71 0 1 1 55 83 71 71 0 0 1-54-83z m17-257a7 7 0 0 1 3-5 7 7 0 0 1 5-1l194 40h0a7 7 0 0 1 4 3 7 7 0 0 1 1 5c-23 67-72 112-117 112a67 67 0 0 1-13-1c-49-10-82-76-76-153z m519-60l-58 286a25 25 0 1 1-49-10l58-286a5 5 0 0 0-4-6l-664-137a5 5 0 0 0-6 4l-137 665a5 5 0 0 0 4 6l665 137a5 5 0 0 0 6-4 25 25 0 0 1 49 10 55 55 0 0 1-65 43l-665-137a55 55 0 0 1-43-65l137-665a55 55 0 0 1 54-44 56 56 0 0 1 11 1l665 137a55 55 0 0 1 43 65z m-85 375" horiz-adv-x="1000" />

<glyph glyph-name="close" unicode="&#xe802;" d="M965-79a25 25 0 1 0-36-36l-429 430-429-430a25 25 0 0 0-35 36l429 429-429 429a25 25 0 0 0 35 36l429-430 429 430a25 25 0 0 0 36-36l-430-429z" horiz-adv-x="1000" />

<glyph glyph-name="comment" unicode="&#xe803;" d="M879 695h-758c-51 0-93-43-93-97v-369c0-53 42-97 93-97h493l216-124a25 25 0 0 1 36 28l-25 96h39c51 0 92 44 92 98v368c0 54-42 97-93 97z m43-466a45 45 0 0 0-43-47h-71l-2 0-3 0h0l-2-1-3-1-2-1-2-1-2-2-1-1-2-2a25 25 0 0 1-1-2c0-1-1-1-1-2a25 25 0 0 1-2-2c0-1 0-2 0-3s-1-1-1-2a25 25 0 0 1 0-3c0 0 0-1 0-1s0 0 0-1a25 25 0 0 1 0-2 25 25 0 0 1 0-3s0 0 0-1l18-69-169 97-1 0-3 2-2 0-3 1-2 0-2 0h-500a45 45 0 0 0-42 47v369a45 45 0 0 0 42 47h759a45 45 0 0 0 43-47z m-587 179v-20a17 17 0 0 0-16-17h-20a17 17 0 0 0-17 17v20a17 17 0 0 0 17 16h20a17 17 0 0 0 16-16z m195 0v-20a17 17 0 0 0-17-17h-20a17 17 0 0 0-17 17v20a17 17 0 0 0 17 16h20a17 17 0 0 0 17-16z m201 0v-20a17 17 0 0 0-16-17h-20a17 17 0 0 0-17 17v20a17 17 0 0 0 17 16h20a17 17 0 0 0 16-16z" horiz-adv-x="1000" />

<glyph glyph-name="community" unicode="&#xe804;" d="M900 442h-206v232a73 73 0 0 1-72 75h-522a73 73 0 0 1-71-75v-253a73 73 0 0 1 71-75h16l-15-57a25 25 0 0 1 37-28l147 85h22v-233a73 73 0 0 1 71-75h337l147-84a25 25 0 0 1 37 28l-15 56h16a73 73 0 0 1 71 75v254a73 73 0 0 1-71 75z m-727-77s0 0 0 0a46 46 0 0 1 0 5s0 0 0 1 0 1 0 1a25 25 0 0 1 0 3c0 1 0 2 0 2s-1 2-1 3-1 1-1 2-1 1-1 2-1 1-2 2l-1 2-2 2-2 1-2 1-2 2-3 0-1 1h-1l-2 0-3 0h-49a23 23 0 0 0-21 25v254a23 23 0 0 0 21 25h522a23 23 0 0 0 21-25v-232h-265a72 72 0 0 1-66-46h-34l-1 0-3 0-2-1-3-1-2-1-1 0-101-59z m749-252a23 23 0 0 0-22-25h-49l-2 0-3 0h-1l-1-1-3-1-2-1-2-1-2-1-2-2-1-2a25 25 0 0 1-2-2c0-1 0-1-1-2a24 24 0 0 1-1-2c0-1 0-2-1-2s0-2 0-3a25 25 0 0 1 0-3c0 0 0-1 0-1s0 0 0-1a46 46 0 0 1 1-5s0 0 0 0l7-30-101 58-1 0-2 1-2 1-3 0-2 0-2 0h-344a23 23 0 0 0-21 25v254a23 23 0 0 0 21 25h522a23 23 0 0 0 21-25z m-258 123v-13a17 17 0 0 0-16-17h-13a17 17 0 0 0-17 17v13a17 17 0 0 0 17 16h13a17 17 0 0 0 16-16z m-134 0v-13a17 17 0 0 0-16-17h-13a17 17 0 0 0-17 17v13a17 17 0 0 0 17 16h13a17 17 0 0 0 16-16z m268 0v-13a17 17 0 0 0-16-17h-13a17 17 0 0 0-17 17v13a17 17 0 0 0 17 16h13a17 17 0 0 0 16-16z m-462 294v13a17 17 0 0 0 16 16h13a17 17 0 0 0 17-16v-13a17 17 0 0 0-17-17h-13a17 17 0 0 0-16 17z m-88 13v-13a17 17 0 0 0-17-17h-12a17 17 0 0 0-17 17v13a17 17 0 0 0 17 16h12a17 17 0 0 0 17-16z m222-13v13a17 17 0 0 0 16 16h13a17 17 0 0 0 17-16v-13a17 17 0 0 0-17-17h-13a17 17 0 0 0-16 17z" horiz-adv-x="1000" />

<glyph glyph-name="correct" unicode="&#xe805;" d="M406-143a50 50 0 0 0-38 19l-349 422a50 50 0 0 0 77 64l304-369 499 820a50 50 0 0 0 86-52l-536-880a50 50 0 0 0-39-24q-2 0-4 0z" horiz-adv-x="1000" />

<glyph glyph-name="create" unicode="&#xe806;" d="M707 444v142h0a25 25 0 0 1-7 18l-202 201a25 25 0 0 1-4 3h0l0 0a25 25 0 0 1-13 4h-373a84 84 0 0 1-84-84v-703a84 84 0 0 1 84-84h395a284 284 0 1 1 204 503z m-202 283l117-116h-117z m-431-702v703a34 34 0 0 0 35 34h347v-176a25 25 0 0 1 25-25h176v-117a283 283 0 0 1-202-453h-347a34 34 0 0 0-34 34z m609-99a234 234 0 1 0 233 235 234 234 0 0 0-234-234z m125 234a25 25 0 0 0-25-25h-75v-75a25 25 0 0 0-50 0v75h-75a25 25 0 0 0 0 50h75v75a25 25 0 0 0 50 0v-75h75a25 25 0 0 0 24-24z" horiz-adv-x="1000" />

<glyph glyph-name="down" unicode="&#xe807;" d="M963 614a25 25 0 0 1-35-2l-428-470-428 470a25 25 0 0 1-37-33l447-491a25 25 0 0 1 37 0l446 490a25 25 0 0 1-2 36z" horiz-adv-x="1000" />

<glyph glyph-name="download" unicode="&#xe808;" d="M861 168a25 25 0 0 0 0-35l-138-138a25 25 0 0 0-35 0l-137 138a25 25 0 1 0 35 35l95-94v222a25 25 0 1 0 50 0v-222l94 94a25 25 0 0 0 36 0z m-122-301a25 25 0 0 0-22-12h-621a89 89 0 0 0-89 89v762a89 89 0 0 0 89 89h403a25 25 0 0 0 18-7l219-218 0-1h0a25 25 0 0 0 7-17h0v-113a288 288 0 0 0-4-572z m-215 710h134l-134 133z m-428-672h465a288 288 0 0 0 132 536v86h-194a25 25 0 0 0-25 25v193h-378a39 39 0 0 1-39-39v-762a39 39 0 0 1 39-39z m847 248a238 238 0 1 1-237-238 238 238 0 0 1 237 238z" horiz-adv-x="1000" />

<glyph glyph-name="edit" unicode="&#xe809;" d="M936 424l-17 15c-72 59-125-6-146-31l-59-72v232h0a25 25 0 0 1-7 18l-203 201a25 25 0 0 1-4 4h0l-1 0h0a25 25 0 0 1-13 3h-373a85 85 0 0 1-85-84v-705a85 85 0 0 1 85-85h409a25 25 0 0 1 4 1l2 0 1 0 2 0 1 0c7 3 36 15 156 67a25 25 0 0 1 9 7l233 284c29 36 73 90 6 145z m-425 286l117-117h-117z m-433-705v705a35 35 0 0 0 34 35h349v-177a25 25 0 0 1 25-25h178v-268l-95-116a22 22 0 0 1-8-11l-20-24a25 25 0 0 1-5-9s-10-41-20-82c-7-28-12-48-15-63h-388a35 35 0 0 0-35 35z m478-18c7 30 16 71 26 110l5 6 80-65-5-6z m335 324l-193-235-79 66 193 234c35 44 50 44 75 24l17-14c26-21 24-30-13-75z" horiz-adv-x="1000" />

<glyph glyph-name="email" unicode="&#xe80a;" d="M943 732h-886a55 55 0 0 1-55-55v-653a55 55 0 0 1 55-56h886a55 55 0 0 1 55 56v653a55 55 0 0 1-55 55z m-347-378a138 138 0 0 0-192 0l-333 328h858z m-247-16l-297-286v578z m37-35a187 187 0 0 1 227-1l295-283h-819z m562-253l-298 286 298 294z" horiz-adv-x="1000" />

<glyph glyph-name="event" unicode="&#xe80b;" d="M240 667a25 25 0 0 1 50 0v33h-50z m50 130a25 25 0 1 1-50 0v-47h50z m566-47h-100v47a25 25 0 0 1-50 0v-47h-182v47a25 25 0 0 1-50 0v-47h-184v-50h184v-33a25 25 0 0 1 50 0v33h181v-33a25 25 0 0 1 50 0v33h100a58 58 0 0 0 59-58v-126h-828v126a58 58 0 0 0 58 58h96v50h-96a108 108 0 0 1-108-108v-656a108 108 0 0 1 108-108h712a108 108 0 0 1 108 108v656a108 108 0 0 1-108 108z m0-822h-712a58 58 0 0 0-58 58v480h828v-480a58 58 0 0 0-58-58z m-234 267a111 111 0 0 1-16 25 89 89 0 0 1-24 18 88 88 0 0 1-30 11 192 192 0 0 1-21 1c-3 0-7 0-12 0a70 70 0 0 1-33-12 72 72 0 0 1-17-17 89 89 0 0 1-6-8q-2-5-6-13 0 9 0 16t1 13q1 6 2 13l3 16a221 221 0 0 0 7 27 45 45 0 0 0 17 22 33 33 0 0 0 19 6c1 0 3 0 6 0a24 24 0 0 0 9-3 21 21 0 0 0 12-13 184 184 0 0 0 5-19h94q-1 11-3 20a78 78 0 0 1-6 18 73 73 0 0 1-25 32 119 119 0 0 1-32 17 133 133 0 0 1-31 6q-14 1-20 1a189 189 0 0 1-54-7 115 115 0 0 1-46-28 127 127 0 0 1-18-20 133 133 0 0 1-11-20 146 146 0 0 1-7-17q-2-8-4-13-2-9-4-17t-4-18q-1-10-2-23t-1-32a335 335 0 0 1 3-39q1-14 3-24c0-1 1-3 2-7s2-8 3-13 3-10 5-16a94 94 0 0 1 7-15 111 111 0 0 1 61-49 170 170 0 0 1 57-8 180 180 0 0 1 37 3 134 134 0 0 1 27 9 94 94 0 0 1 20 11 161 161 0 0 1 14 13 95 95 0 0 1 21 32 167 167 0 0 1 10 37q1 9 1 15c0 4 0 7 0 9a146 146 0 0 1-3 30 124 124 0 0 1-10 30z m-82-68a118 118 0 0 0-4-30 44 44 0 0 0-17-24 32 32 0 0 0-11-6 46 46 0 0 0-8 0 42 42 0 0 0-17 4 36 36 0 0 0-16 19 67 67 0 0 0-6 17 112 112 0 0 0-1 27c0 1 0 4 1 8a72 72 0 0 0 2 13 64 64 0 0 0 6 14 39 39 0 0 0 13 13 31 31 0 0 0 11 5 51 51 0 0 0 8 1 31 31 0 0 0 14-2 29 29 0 0 0 7-5 43 43 0 0 0 10-13 68 68 0 0 0 5-14 85 85 0 0 0 2-12c0-4 1-6 1-7z" horiz-adv-x="1000" />

<glyph glyph-name="facebook" unicode="&#xe80c;" d="M622 578h81a57 57 0 0 1 57 56v131a57 57 0 0 1-57 57h-117c-24 0-105-5-170-64a190 190 0 0 1-63-166v-59h-56a57 57 0 0 1-57-56v-141a57 57 0 0 1 57-57h51v-344a57 57 0 0 1 57-57h160a57 57 0 0 1 56 57v342h66a57 57 0 0 1 56 50l16 143a57 57 0 0 1-56 63h-82v45z m-26-95h107a7 7 0 0 0 7-7l-17-143a7 7 0 0 0-6-6h-91a25 25 0 0 1-25-25v-367a7 7 0 0 0-6-7h-160a7 7 0 0 0-7 7v369a25 25 0 0 1-25 25h-76a7 7 0 0 0-7 7v141a7 7 0 0 0 7 6h81a25 25 0 0 1 25 25v86a25 25 0 0 1 0 3 139 139 0 0 0 47 124c58 53 132 51 140 51h113a7 7 0 0 0 7-7v-131a7 7 0 0 0-7-6h-81c-33 0-50-17-50-48v-72a25 25 0 0 1 24-25z" horiz-adv-x="1000" />

<glyph glyph-name="filter" unicode="&#xe80d;" d="M85 691h163a25 25 0 0 1 3 0 112 112 0 0 1 215 0h458a25 25 0 0 1 0 50h-454a112 112 0 0 1-222 0h-163a25 25 0 0 1 0-50z m273 96a62 62 0 1 0-62-63 62 62 0 0 0 62 63z m566-759h-456a112 112 0 0 1-219 0h-164a25 25 0 1 1 0-51h164a112 112 0 0 1 219 0h456a25 25 0 1 1 0 51z m-566-88a62 62 0 1 0 63 63 62 62 0 0 0-63-63z m566 448h-160a112 112 0 0 1-219 0h-460a25 25 0 0 1 0-50h460a112 112 0 0 1 219 0h160a25 25 0 0 1 0 50z m-270-87a62 62 0 1 0 63 62 62 62 0 0 0-63-62z" horiz-adv-x="1000" />

<glyph glyph-name="follow" unicode="&#xe80e;" d="M928 332a34 34 0 0 1-38-6c-109-100-186-119-222-122v87a34 34 0 0 1-55 27l-38-30a25 25 0 0 1-7 10 307 307 0 0 1-77 53 248 248 0 1 1-216 0c-112-54-199-189-221-361a99 99 0 0 1 98-112h454a25 25 0 0 1 18 8 34 34 0 0 1 10-2 34 34 0 0 1 34 35v87c257 23 270 188 277 268 0 9 1 16 2 23a34 34 0 0 1-19 35z m-743 242a198 198 0 1 0 198-197 198 198 0 0 0-198 197z m-70-629a48 48 0 0 0-12 38c26 199 144 343 280 343 53 0 106-22 151-65a25 25 0 0 1 3-2l-167-127a34 34 0 0 1 0-55l195-149h-413a49 49 0 0 0-37 17z m536 110a34 34 0 0 1-33-34v-70l-201 154 201 154v-70a34 34 0 0 1 33-35c33-1 120 6 243 109-8-82-28-194-243-208z" horiz-adv-x="1000" />

<glyph glyph-name="google" unicode="&#xe80f;" d="M928 212a51 51 0 0 1-50 49h-48a51 51 0 0 1-50-49 51 51 0 0 1-50-50v-49a51 51 0 0 1 50-50 51 51 0 0 1 50-49h48a51 51 0 0 1 50 49 51 51 0 0 1 49 50v48a51 51 0 0 1-49 51z m-1-100h-24a25 25 0 0 1-25-25v-24l0 0-48 0v24a25 25 0 0 1-25 25l-25 1 0 49h24a25 25 0 0 1 25 25l0 24 49 0v-24a25 25 0 0 1 25-25l24-1z m-186 261c-1 6-3 18-4 25a68 68 0 0 1-67 58h-98l65 64a68 68 0 0 1-8 104c-4 3-35 25-48 33s-39 20-53 26a326 326 0 0 1-135 26 358 358 0 0 1-358-358 358 358 0 0 1 103-258 369 369 0 0 1 261-106 347 347 0 0 1 253 106 323 323 0 0 1 88 205c1 13 2 53 1 75z m-51-72a273 273 0 0 0-75-174 297 297 0 0 0-216-90 319 319 0 0 0-225 92 309 309 0 0 0-90 222 308 308 0 0 0 309 308 277 277 0 0 0 115-21c12-6 36-17 47-24 9-6 33-22 44-31a18 18 0 0 0 3-28l-77-76a18 18 0 0 0-23-2l-26 18-1 1a153 153 0 0 1-80 22 165 165 0 0 1-115-48c-65-64-66-177-2-242a169 169 0 0 1 120-49 156 156 0 0 1 115 47q4 5 8 9a25 25 0 0 1-19 41h-100a18 18 0 0 0-19 19v92a18 18 0 0 0 19 19h267a18 18 0 0 0 19-16c2-11 3-18 3-21 1-18 0-54-1-68z m-311-71a117 117 0 0 0-65 33 125 125 0 0 0 1 172 114 114 0 0 0 80 33 103 103 0 0 0 49-12h-42a69 69 0 0 1-69-69v-92a69 69 0 0 1 46-65z" horiz-adv-x="1000" />

<glyph glyph-name="hamberger" unicode="&#xe810;" d="M997 350a50 50 0 0 0-50-50h-894a50 50 0 0 0 0 100h894a50 50 0 0 0 50-50z m-944 378h894a50 50 0 1 1 0 100h-894a50 50 0 1 1 0-100z m894-756h-894a50 50 0 0 1 0-100h894a50 50 0 0 1 0 100z" horiz-adv-x="1000" />

<glyph glyph-name="howto" unicode="&#xe811;" d="M161 145c0-63 90-111 209-111s210 48 210 111-90 110-210 110-209-47-209-110z m209 60c98 0 160-35 160-60s-62-61-160-61-159 36-159 61 62 60 159 60z m581-237l-114 525h0l-4 16c0 1 1 1 1 2l77 212a25 25 0 0 1-6 26c-3 4-93 94-212 68-124-27-129-119-129-123a25 25 0 0 1 4-14l0-1a422 422 0 0 1-198 47c-178 0-323-100-323-222 0-88 74-164 181-200-102-28-172-85-180-153a25 25 0 0 1-1-6v-5c0 0 0-1 0-1s0-2 0-2l1-91h0v0a25 25 0 0 1 2-7c19-92 155-161 320-161 179 0 320 79 323 181h-1a25 25 0 0 1 0 6v65q0 4 0 9t0 9v4a25 25 0 0 1-2 10c-13 63-82 116-178 142 96 32 164 96 178 171l3-13h0l2-10 1-4h0l111-511a73 73 0 0 1 87-56l1 0a73 73 0 0 1 56 87z m-208 500l-1 5a23 23 0 0 0 3 17 23 23 0 0 0 15 10 23 23 0 0 0 5 1 23 23 0 0 0 22-18l2-6-46-10z m-65 293l7-47a25 25 0 0 1 25-21 26 26 0 0 1 3 0 25 25 0 0 1 21 28l-7 50a160 160 0 0 0 48-4l-17-105a25 25 0 0 1 20-29 26 26 0 0 1 4 0 25 25 0 0 1 25 21l16 94a243 243 0 0 0 35-24l-60-166a41 41 0 0 1-18 0l-62-14a42 42 0 0 1-6-2l-97 156c3 14 15 45 63 63z m-308-833c-141 0-240 52-267 106 58-48 155-79 267-79s208 31 266 79c-26-55-127-106-266-106z m273 218v-14c-8-69-130-127-273-127-147 0-271 61-273 132v3c2 72 126 132 273 132 143 0 265-57 273-126z m-273 185c-150 0-273 78-273 173s123 172 273 172 273-78 273-172-122-173-273-173z m529-391a23 23 0 0 0-15-10l0 0a23 23 0 0 0-28 17l-102 471 46 10 102-471a23 23 0 0 0-3-17z" horiz-adv-x="1000" />

<glyph glyph-name="icon-badge" unicode="&#xe812;" d="M892 557a51 51 0 0 1-26 32l-68 35 2 54a72 72 0 0 1-75 75l-53-3-35 68a51 51 0 0 1-72 19l-65-41-45 29a72 72 0 0 1-102-27l-25-48-76 4a51 51 0 0 1-53-53l3-77-47-24a72 72 0 0 1-28-103l29-45-41-64a51 51 0 0 1 19-73l68-35-2-53a72 72 0 0 1 75-75l13 1v-243c0-31 21-55 48-55h6l156 89 160-89h7c26 0 48 24 48 55v243l35-2a51 51 0 0 1 54 53l-4 76 47 25a72 72 0 0 1 28 102l-29 45 41 65a51 51 0 0 1 7 40z m-554-648v227l25-50a51 51 0 0 1 73-19l39 25v-104z m325 0l-142 79h4v104l20-13a72 72 0 0 1 103 28l15 29v-226s0-1 0-1z m180 635l-58-92 46-72a22 22 0 0 0-8-31l-77-39 5-108a1 1 0 0 0 0-1 1 1 0 0 0 0 0l-109 5-39-76a22 22 0 0 0-31-8l-72 46-91-59a1 1 0 0 0-1 0 1 1 0 0 0 0 0l-50 97-86-4a22 22 0 0 0-22 23l4 85-97 50a1 1 0 0 0 0 1l58 91-46 72a22 22 0 0 0 9 31l76 40-5 108a1 1 0 0 0 0 1 1 1 0 0 0 0 0l109-5 39 76a22 22 0 0 0 31 8l72-46 91 58a1 1 0 0 0 1 0 1 1 0 0 0 0 0l50-96 86 4a22 22 0 0 0 22-23l-3-85 96-50a1 1 0 0 0 0-1z" horiz-adv-x="1000" />

<glyph glyph-name="ig" unicode="&#xe813;" d="M680 822h-360a291 291 0 0 1-291-291v-362a291 291 0 0 1 291-291h360a291 291 0 0 1 291 291v362a291 291 0 0 1-291 291z m241-653a241 241 0 0 0-241-241h-360a241 241 0 0 0-241 241v362a241 241 0 0 0 241 241h360a241 241 0 0 0 241-241z m-423 418a239 239 0 1 1 239-239 239 239 0 0 1-239 239z m0-427a189 189 0 1 0 189 188 189 189 0 0 0-189-188z m95 188a95 95 0 1 0-95 95 95 95 0 0 0 95-95z m198 258a27 27 0 1 0-27 27 27 27 0 0 0 27-27z" horiz-adv-x="1000" />

<glyph glyph-name="insert-sticker-photo" unicode="&#xe814;" d="M854 822h-328a118 118 0 0 1-119-118v-226a304 304 0 1 1 221-221h226a119 119 0 0 1 118 119v327a119 119 0 0 1-118 119z m-521-894a254 254 0 1 0 254 255 255 255 0 0 0-254-255z m589 448a68 68 0 0 0-69-69h-243a306 306 0 0 1-121 137l128 102 82-84a25 25 0 0 1 32-3l57 40 134-96z m0 89l-119 85a25 25 0 0 1-29 0l-54-38-84 85a25 25 0 0 1-33 2l-146-117v221a67 67 0 0 0 1 9 69 69 0 0 0 67 60h328a68 68 0 0 0 69-69z m-62 206a39 39 0 1 0-53 12 39 39 0 0 0 53-12z m-668-463a30 30 0 1 0 31-30 31 31 0 0 0-31 30z m221 0a30 30 0 1 0 30-30 31 31 0 0 0-30 30z m58-120c-29-42-71-60-135-61-86 1-122 40-136 63a25 25 0 0 0 43 25c8-14 32-38 93-38 59 0 80 19 94 39a25 25 0 0 0 41-28z" horiz-adv-x="1000" />

<glyph glyph-name="link" unicode="&#xe815;" d="M552 136a25 25 0 0 0 0-35l-160-160a213 213 0 0 0-301 301l206 206a214 214 0 0 0 301 0 25 25 0 0 0-35-35 164 164 0 0 1-231 0l-206-207a163 163 0 1 1 230-230l161 160a25 25 0 0 0 35 0z m357 623a213 213 0 0 1-301 0l-130-130a25 25 0 0 1 35-35l131 130a163 163 0 0 0 230-230l-206-207a163 163 0 0 0-231 0 25 25 0 0 1-35-35 213 213 0 0 1 301 0l206 206a213 213 0 0 1 0 301z" horiz-adv-x="1000" />

<glyph glyph-name="location" unicode="&#xe816;" d="M500 822a345 345 0 0 1-345-345c0-62 23-134 40-184 48-125 145-262 287-407a25 25 0 0 1 36 0c143 145 239 283 287 408 17 49 40 120 40 182a345 345 0 0 1-345 346z m258-510c-43-114-130-239-258-373-128 134-215 259-258 372-16 45-37 111-37 166a295 295 0 0 0 590 0c0-55-21-121-37-165z m-259 344a153 153 0 1 1 152-152 153 153 0 0 1-152 152z m0-255a103 103 0 1 0 102 103 103 103 0 0 0-102-103z" horiz-adv-x="1000" />

<glyph glyph-name="login" unicode="&#xe817;" d="M431 219a103 103 0 1 1 103-103 103 103 0 0 1-103 103z m33-144a53 53 0 0 0-33-12 53 53 0 1 0 33 12z m502-1l-35 23-6 17 20 38a25 25 0 0 1-9 33l-40 24-25 81a247 247 0 0 1-188 444c-64 74-151 113-250 113-104 0-197-45-262-127-65-83-102-201-105-344a55 55 0 0 1-43-54v-412a55 55 0 0 1 55-55h707a55 55 0 0 1 55 45l0 0 65-41a25 25 0 0 1 37 12l26 66a25 25 0 0 1 1 14l-11 55 17 36a25 25 0 0 1-9 32z m-238 614a198 198 0 1 0-59-9 196 196 0 0 0 59 9z m-220-311h-294c3 284 138 327 219 327 47 0 87-13 119-39a247 247 0 0 1-44-288z m-298 312c56 71 133 108 223 108 77 0 144-27 197-80a246 246 0 0 1-38-20c-43 38-96 57-159 57-84 0-154-36-200-103-45-65-68-157-69-274h-48c4 131 36 238 94 312z m580-779a5 5 0 0 0-5-5h-707a5 5 0 0 0-5 5v412a5 5 0 0 0 5 5h465a247 247 0 0 1 184-83l4 0 62-208a25 25 0 0 1-3-10z m117 94l12-56-13-31-32 20-93 311 46 15 24-78a25 25 0 0 1 11-14l28-17-14-26a25 25 0 0 1-1-19l10-35a25 25 0 0 1 10-13l25-17-11-24a25 25 0 0 1-2-16z m-282 601a90 90 0 1 1 53 44 90 90 0 0 1-53-44z m45-23a40 40 0 1 0-3-30 39 39 0 0 0 3 30z" horiz-adv-x="1000" />

<glyph glyph-name="logout" unicode="&#xe818;" d="M500-146c-242 0-440 198-440 440a441 441 0 0 0 293 415 25 25 0 1 0 17-47 390 390 0 0 1-260-368c0-215 175-390 390-390s390 175 390 390a390 390 0 0 1-260 368 25 25 0 1 0 17 47 441 441 0 0 0 293-415c0-242-197-440-440-440z m25 509v456a25 25 0 0 1-50 0v-456a25 25 0 1 1 50 0z" horiz-adv-x="1000" />

<glyph glyph-name="love" unicode="&#xe819;" d="M500-75a25 25 0 0 0-25 29c-1 4-8 31-74 86-37 31-111 79-171 118-53 34-80 51-89 61a318 318 0 0 0-113 247c0 170 127 309 283 309 74 0 138-56 189-113 51 57 116 113 189 113 156 0 283-139 283-310 0-98-43-191-116-250l-340-285a25 25 0 0 0-16-5z m-23 33h0z m0 0h0z m-301 296c7-7 47-32 81-55 61-39 137-88 176-121 43-36 67-64 79-85l312 261a271 271 0 0 1 98 212c0 143-105 259-233 259-63 0-124-63-170-118a25 25 0 0 0-19-8h0a25 25 0 0 0-19 9c-46 54-107 117-170 117-128 0-233-117-233-260a276 276 0 0 1 73-189c2-1 3-2 4-3l0 0 7-6 3-3 10-9z" horiz-adv-x="1000" />

<glyph glyph-name="loved" unicode="&#xe81a;" d="M972 468c0-98-43-191-116-249l-339-285a24 24 0 0 0-39 22c0 4-7 31-74 87-37 31-112 79-172 118-53 35-79 52-89 61a317 317 0 0 0-112 246c0 170 126 309 282 309 73 0 138-58 189-115 50 57 115 115 188 115 156 0 282-139 282-309z" horiz-adv-x="1000" />

<glyph glyph-name="may-like" unicode="&#xe81b;" d="M952 331c7 14 14 33 14 51 0 24-14 50-37 70-30 26-74 40-132 44-75 4-133-6-167-14 0 12 1 29 2 51 0 20 10 48 20 77 19 53 38 109 16 154-19 40-53 70-89 82-22 6-43 5-58-4-43-24-37-99-35-116 0-1 0-1 0-1l0 1 0-1c0-6-3-34-38-110-29-62-76-126-140-189-16-16-28-37-37-54a55 55 0 0 1-19 3h-182a55 55 0 0 1-55-55v-411a55 55 0 0 1 55-55h182a55 55 0 0 1 40 18c57-4 298-21 384-22l7 0c102 0 180 28 210 74 22 33 22 71 21 91 13 13 34 39 46 71 12 34 0 64-11 83 15 16 34 44 36 81a102 102 0 0 1-33 81z m-465 394l0 0c0 0 0 0 0 0z m-230-816a5 5 0 0 0-5-5h-182a5 5 0 0 0-5 5v411a5 5 0 0 0 5 5h182a5 5 0 0 0 5-5z m678 344c-2-37-34-60-34-60l-25-17 21-21c1-1 25-26 16-52-13-34-41-59-42-59l-11-10 3-14c0-1 7-39-11-69-17-26-78-52-175-51-79 1-298 16-370 21v409c6 15 21 45 36 60 68 68 118 136 150 204 43 93 45 127 43 137-4 29 1 63 9 68 3 1 9 2 19-1 18-6 43-23 59-56 13-26-4-74-18-116-11-33-22-64-23-91-3-63-3-86-3-87l-1-38 35 14c24 10 93 27 181 22 58-4 87-19 102-32 15-13 20-26 20-32 0-14-12-36-17-45l-15-23 24-12c3-1 29-17 27-49z" horiz-adv-x="1000" />

<glyph glyph-name="member" unicode="&#xe81c;" d="M829-10c-22 172-109 307-221 361a248 248 0 1 1-216 0c-112-54-199-189-221-361a99 99 0 0 1 98-112h462a99 99 0 0 1 98 112z m-527 584a198 198 0 1 0 198-197 198 198 0 0 0-198 197z m466-629a49 49 0 0 0-37-17h-462a49 49 0 0 0-37 17 48 48 0 0 0-11 38c25 199 143 344 279 344s254-145 279-344a48 48 0 0 0-11-38z" horiz-adv-x="1000" />

<glyph glyph-name="mention" unicode="&#xe81d;" d="M868 702c-97 113-224 161-377 142-133-16-247-75-329-170-57-67-123-162-124-315-2-163 58-288 114-350 67-75 156-154 362-154 169 0 224 72 226 75l-40 29 0 1c0 0-11-14-39-28-26-12-73-28-147-28-186 0-262 69-325 138-50 56-102 168-101 316 1 136 57 220 112 283 75 87 175 139 297 154 138 17 246-24 333-126 40-47 67-107 77-175a453 453 0 0 0-17-204c-22-69-73-115-114-130-24-8-45-7-60 3-40 26-27 97-18 149 2 10 4 19 5 27l-12 2c19 33 33 65 42 93 22 71 8 113-7 136-18 28-64 36-89 38-78 7-201-16-289-106-78-79-93-157-93-209 1-64 27-114 48-138 12-11 52-49 116-49q4 0 8 0c65 3 127 44 186 121 10 12 19 24 27 35-5-52 0-109 48-141 28-19 65-21 104-8 65 23 122 86 146 161 50 156 23 320-70 428z m-294-445c-49-64-101-99-149-101a112 112 0 0 0-85 34c-12 13-34 50-34 104-1 76 42 136 78 173 64 65 155 92 226 92 8 0 16 0 23-1 33-3 49-12 52-16 12-17 39-90-111-285z" horiz-adv-x="1000" />

<glyph glyph-name="more-horizon" unicode="&#xe81e;" d="M875 333v34a33 33 0 0 0 33 33h34a33 33 0 0 0 33-33v-34a33 33 0 0 0-33-33h-34a33 33 0 0 0-33 33z m-392-33h34a33 33 0 0 1 33 33v34a33 33 0 0 1-33 33h-34a33 33 0 0 1-33-33v-34a33 33 0 0 1 33-33z m-425 0h34a33 33 0 0 1 33 33v34a33 33 0 0 1-33 33h-34a33 33 0 0 1-33-33v-34a33 33 0 0 1 33-33z" horiz-adv-x="1000" />

<glyph glyph-name="more-verticle" unicode="&#xe81f;" d="M517 725h-34a33 33 0 0 0-33 33v34a33 33 0 0 0 33 33h34a33 33 0 0 0 33-33v-34a33 33 0 0 0-33-33z m33-392v34a33 33 0 0 1-33 33h-34a33 33 0 0 1-33-33v-34a33 33 0 0 1 33-33h34a33 33 0 0 1 33 33z m0-425v34a33 33 0 0 1-33 33h-34a33 33 0 0 1-33-33v-34a33 33 0 0 1 33-33h34a33 33 0 0 1 33 33z" horiz-adv-x="1000" />

<glyph glyph-name="my-bag" unicode="&#xe820;" d="M871 530h-741a55 55 0 0 1-55-55v-560a55 55 0 0 1 55-55h741a55 55 0 0 1 55 55v560a55 55 0 0 1-55 55z m-741-50h741a5 5 0 0 0 5-5v-93c-26-43-82-92-149-131-77-45-156-69-223-69-66 0-151 28-233 78-73 44-130 98-146 137v78a5 5 0 0 0 5 5z m741-570h-741a5 5 0 0 0-5 5v396c30-31 71-64 120-93 89-55 184-86 259-86 75 0 164 27 248 76 49 28 92 61 124 94v-387a5 5 0 0 0-5-5z m-424 311h107a55 55 0 0 1 55 55v14a55 55 0 0 1-55 55h-107a55 55 0 0 1-55-55v-14a55 55 0 0 1 55-55z m-5 69a5 5 0 0 0 5 5h107a5 5 0 0 0 5-5v-14a5 5 0 0 0-5-5h-107a5 5 0 0 0-5 5z m-139 243h-50c0 86 19 160 55 214 43 65 109 99 192 99s150-34 193-99c36-54 55-128 55-214h-50c0 76-16 140-46 186-34 51-85 77-152 77s-117-26-151-77c-30-46-46-110-46-186z" horiz-adv-x="1000" />

<glyph glyph-name="next" unicode="&#xe821;" d="M781 350a25 25 0 0 0-8-18l-513-467a25 25 0 1 0-33 37l492 448-492 448a25 25 0 1 0 33 37l513-466a25 25 0 0 0 8-19z" horiz-adv-x="1000" />

<glyph glyph-name="notification" unicode="&#xe822;" d="M867 143c-25 42-59 100-59 264 1 6 1 12 1 18 0 119-78 221-189 265a106 106 0 0 1 2 18c0 63-55 114-122 114s-122-51-122-115a106 106 0 0 1 2-17c-111-44-189-146-189-265 0-6 0-11 1-18 0-165-34-222-59-264-13-23-26-46-26-77 0-62 22-93 66-93h162c13-78 95-95 165-95s152 17 165 95h161c67 0 67 58 67 93 0 31-13 53-26 77z m-367 629c39 0 71-28 72-63a305 305 0 0 1-144 0c1 35 33 63 72 63z m0-844c-83 0-107 24-114 45h228c-7-21-31-45-114-45z m326 95h-468l-24 0v0h-160c-7 0-17 0-17 43 0 18 8 31 20 52 26 44 65 111 65 290 0 0 0 1 0 1 0 6-1 11-1 16 0 131 116 238 259 238s259-107 259-238c0-4 0-9-1-15 0-1 0-2 0-2 0-179 40-246 66-290 12-21 19-34 19-52 0-43-3-43-17-43z" horiz-adv-x="1000" />

<glyph glyph-name="password" unicode="&#xe823;" d="M658 847c-187 0-339-152-339-339a337 337 0 0 1 31-140l-330-334a25 25 0 0 1-7-18l2-131a25 25 0 0 1 25-25l130-1h1a25 25 0 0 1 18 8l25 28 69-10a25 25 0 0 1 29 27l-6 75 19 20 78-14a25 25 0 0 1 29 28l-10 82 106 92a337 337 0 0 1 130-26c187 0 339 152 339 339s-152 339-339 339z m-183-631l-96-85a25 25 0 0 1-8-21l7-62-58 10a25 25 0 0 1-22-7l-36-36a25 25 0 0 1-7-20l4-56-51 7a25 25 0 0 1-22-8l-26-29-95 1-2 96 308 312 28-28a342 342 0 0 1 46-45z m183 3a287 287 0 0 0-179 63l-43 42a289 289 0 1 0 222-105z m77 482a116 116 0 1 1 116-117 116 116 0 0 1-116 117z m0-183a66 66 0 1 0 66 66 66 66 0 0 0-66-66z" horiz-adv-x="1000" />

<glyph glyph-name="pencile" unicode="&#xe824;" d="M933 567c52 53 99 117 18 200l-27 27c-39 40-81 55-124 44-40-10-75-41-104-69l0 0-578-591a25 25 0 0 1-10-10l-7-8a25 25 0 0 1-6-9c0-1-23-66-45-131-13-38-23-69-30-91-5-13-8-23-10-30-4-14-8-25 2-36a25 25 0 0 1 23-8c2 0 5 1 273 77a25 25 0 0 1 11 7l595 609c4 4 9 8 13 13a24 24 0 0 1 6 6z m-121 223c16 4 41 5 76-31l27-27c42-43 38-70-3-115l-145 148c15 11 30 21 45 25z m-82-58l147-150-493-505-147 151z m-417-727l-147 150 36 37 147-150z m-178 110l138-140c-69-20-155-45-205-59 16 49 45 134 67 199z" horiz-adv-x="1000" />

<glyph glyph-name="photo" unicode="&#xe825;" d="M847 822h-694a125 125 0 0 1-125-125v-694a125 125 0 0 1 125-125h694a125 125 0 0 1 125 125v694a125 125 0 0 1-125 125z m-694-50h694a75 75 0 0 0 75-75v-544l-254 187a25 25 0 0 1-29 1l-103-72-151 153a25 25 0 0 1-33 2l-274-222v495a75 75 0 0 0 75 75z m694-844h-694a75 75 0 0 0-75 75v135l287 232 150-151a25 25 0 0 1 32-3l106 74 269-199v-88a75 75 0 0 0-75-75z m-129 504a90 90 0 1 1-90 90 90 90 0 0 1 90-90z m0 130a40 40 0 1 0-40-40 40 40 0 0 0 40 40z" horiz-adv-x="1000" />

<glyph glyph-name="privilege" unicode="&#xe826;" d="M913 589a25 25 0 0 1-25 25l-84 0a125 125 0 0 1-16 1h-103l17 11c41 26 76 48 83 85 5 22-2 45-18 69-53 76-117 33-172-5l-19-13a289 289 0 0 1-76-71 282 282 0 0 1-75 71l-20 13c-55 38-119 81-172 5-16-24-23-47-18-69 7-37 42-59 83-84l17-11-203 1h0a25 25 0 0 1 0-50h1a124 124 0 0 1-26-77v-487a125 125 0 0 1 125-125h576a125 125 0 0 1 125 125v488a124 124 0 0 1-24 73 25 25 0 0 1 24 25z m-481-23a147 147 0 0 1 21-2 107 107 0 0 1 19 2h3v-294l-338 0v219a75 75 0 0 0 75 75z m93 0h4a108 108 0 0 1 18-2 146 146 0 0 1 19 2l235-1a75 75 0 0 0 62-74v-220l-338 1z m11 89a230 230 0 0 0 67 65l20 13c38 27 59 39 74 39 12 0 19-7 29-21s12-22 11-30c-4-16-32-33-61-52-9-6-18-11-27-17a233 233 0 0 0-84-36h-32a13 13 0 0 0-7 4c-3 4-1 17 10 35z m-184-3c-10 6-19 12-27 17-30 19-58 36-61 53-2 7 2 17 10 30s17 20 29 20c15 0 36-12 74-38l20-14c70-46 82-91 77-100h0a13 13 0 0 0-7-4h-33a234 234 0 0 0-82 36z m-215-649v219l338 0v-293h-263a75 75 0 0 0-75 74z m652-75h-264v294l338 0v-218a75 75 0 0 0-75-76z" horiz-adv-x="1000" />

<glyph glyph-name="qa" unicode="&#xe827;" d="M879 766h-24a92 92 0 0 1-79 47h-655c-51 0-93-44-93-98v-575c0-54 42-97 93-97h333l185-140a25 25 0 0 1 14-5 100 100 0 0 1 47-11 98 98 0 0 1 31 5 25 25 0 0 1 17 23v80h131c51 0 93 44 93 98v575c0 54-42 98-93 98z m-800-625v575a46 46 0 0 0 43 47h654a43 43 0 0 0 38-26 25 25 0 0 1 3-9 52 52 0 0 0 2-12v-575a46 46 0 0 0-43-48h-124l-2 0a25 25 0 0 1-3 0l-2-1a25 25 0 0 1-3-1l-2-1a25 25 0 0 1-2-1l-2-1a25 25 0 0 1-2-2c0-1-1-1-1-2a25 25 0 0 1-2-2c0 0 0-1-1-2a25 25 0 0 1-1-2c0-1 0-2-1-2a24 24 0 0 1 0-3 25 25 0 0 1 0-2c0-1 0-2 0-3v0l1-93-152 113-1 0a25 25 0 0 1-2 1l-2 1-2 1-3 1-2 0-3 0h-341a46 46 0 0 0-43 48z m619-121v-83a48 48 0 0 0-19 4l-2 102h35a25 25 0 0 1-14-23z m224 73a46 46 0 0 0-43-48h-83a97 97 0 0 1 73 96v575h10a46 46 0 0 0 43-48z m-531 488a96 96 0 0 1-11-33 213 213 0 0 1-3-37h-75a204 204 0 0 0 2 40 157 157 0 0 0 10 38 138 138 0 0 0 20 34 120 120 0 0 0 29 26 147 147 0 0 0 40 18 192 192 0 0 0 52 6 161 161 0 0 0 56-9 132 132 0 0 0 44-27 122 122 0 0 0 30-42 131 131 0 0 0 10-53 148 148 0 0 0-3-36 127 127 0 0 0-11-28 129 129 0 0 0-16-23q-8-11-19-21t-21-20q-11-10-22-22a140 140 0 0 1-17-22 77 77 0 0 1-8-21 109 109 0 0 1-3-23q0-13 0-31h-77q0 19 0 33a210 210 0 0 0 3 26 109 109 0 0 0 6 21 100 100 0 0 0 10 19 168 168 0 0 0 15 20q9 10 22 22l23 22a187 187 0 0 1 19 24 125 125 0 0 1 15 26 83 83 0 0 1 5 31 109 109 0 0 1-3 26 76 76 0 0 1-11 24 59 59 0 0 1-19 18 55 55 0 0 1-28 8 76 76 0 0 1-40-10 66 66 0 0 1-24-24z m84-393h-77v77h77z" horiz-adv-x="1000" />

<glyph glyph-name="reply" unicode="&#xe828;" d="M915 719a25 25 0 0 0-25-25h-705c-27 0-50-18-50-38v-443c0-20 23-38 50-38h418l-131 131a25 25 0 1 0 35 36l171-172a25 25 0 0 0 0-35l-171-172a25 25 0 0 0-35 36l126 126h-413c-55 0-100 40-100 88v443c0 48 45 88 100 88h705a25 25 0 0 0 25-25z" horiz-adv-x="1000" />

<glyph glyph-name="report" unicode="&#xe829;" d="M879 695h-758c-51 0-92-43-92-97v-369c0-53 41-97 92-97h493l216-124a25 25 0 0 1 36 28l-25 96h39c51 0 92 44 92 98v368c0 54-42 97-93 97z m43-466a45 45 0 0 0-43-47h-71l-2 0-3 0h0l-2-1-2-1-2-1-3-1-1-2-2-1-2-2a25 25 0 0 1-1-2c0-1-1-1-1-2a25 25 0 0 1-1-2c0-1-1-2-1-3s0-1-1-2a25 25 0 0 1 0-3c0 0 0-1 0-1s0 0 0-1a25 25 0 0 1 0-3c0-1 0-1 0-2s0-1 0-1l19-69-170 97-1 0-3 2-2 0-3 1-2 0-2 0h-500a45 45 0 0 0-42 47v369a45 45 0 0 0 42 47h759a45 45 0 0 0 42-47z m-401 68v-20a17 17 0 0 0-16-16h-20a17 17 0 0 0-17 16v20a17 17 0 0 0 17 17h20a17 17 0 0 0 16-17z m-53 57v196a17 17 0 0 0 16 17h20a17 17 0 0 0 17-17v-196a17 17 0 0 0-17-17h-20a17 17 0 0 0-16 17z" horiz-adv-x="1000" />

<glyph glyph-name="review" unicode="&#xe82a;" d="M943 442a68 68 0 0 1-47 112l-118 8a18 18 0 0 0-14 8l-61 102a68 68 0 0 1-121-9l-44-110a18 18 0 0 0-13-11l-54-13 41 264a25 25 0 0 1-25 28h-422a25 25 0 0 1-25-28l94-608a25 25 0 0 1 1-4 58 58 0 0 1-6-25v-220a58 58 0 0 1 59-58h177a58 58 0 0 1 58 58v220a58 58 0 0 1-6 26 25 25 0 0 1 1 4l25 160 29-25a18 18 0 0 0 7-15l-11-118a68 68 0 0 1 104-63l100 63a18 18 0 0 0 17 1l108-46a68 68 0 0 1 93 79l-29 115a18 18 0 0 0 4 16z m-570-505a8 8 0 0 0-8-9h-177a8 8 0 0 0-8 9v219a8 8 0 0 0 8 8h177a8 8 0 0 0 8-8z m-1 277h-191l-87 558h364l-38-249a25 25 0 0 1 0-5l-10-2a68 68 0 0 1-28-119l16-13z m441 110l29-115a18 18 0 0 0-25-20l-108 46a68 68 0 0 1-63-5l-101-63a18 18 0 0 0-27 16l11 119a68 68 0 0 1-25 58l-56 47a25 25 0 0 1-16 14l-19 15a18 18 0 0 0 8 31l115 26a68 68 0 0 1 48 41l44 110a18 18 0 0 0 16 12h1a17 17 0 0 0 15-9l61-102a68 68 0 0 1 54-33l118-8a18 18 0 0 0 12-30l-78-88a68 68 0 0 1-14-62z" horiz-adv-x="1000" />

<glyph glyph-name="save" unicode="&#xe82b;" d="M374 410a1 1 0 0 0 0-1l-11-70a51 51 0 0 1 73-54l64 33a1 1 0 0 0 0 0l64-33a51 51 0 0 1 74 54l-13 70a1 1 0 0 0 0 1l52 50a51 51 0 0 1-29 87l-70 10a1 1 0 0 0-1 0l-32 64a51 51 0 0 1-91 0l-32-64a1 1 0 0 0-1 0l-70-10a51 51 0 0 1-28-87z m-16 86c0 1 0 1 0 1l71 10a51 51 0 0 1 38 28l32 64h0a1 1 0 0 0 2 0l31-64a51 51 0 0 1 39-28l71-10s0 0 0-1 0 0 0-1l-51-50a51 51 0 0 1-15-45l12-70s0-1 0-1 0 0-1 0l-63 33a51 51 0 0 1-47 0l-63-33s-1 0-1 0-1 0 0 1l11 70a51 51 0 0 1-15 45l-51 50s0 1 0 1z m405 326h-526a43 43 0 0 1-41-44v-875a25 25 0 0 1 25-25h0a25 25 0 0 1 15 6l264 211 264-212a26 26 0 0 1 16-5 25 25 0 0 1 25 25v875a43 43 0 0 1-42 44z m-9-867l-225 181a41 41 0 0 1-58 0l-226-181v817h510z" horiz-adv-x="1000" />

<glyph glyph-name="saved" unicode="&#xe82c;" d="M761 822h-526a43 43 0 0 1-41-44v-875a25 25 0 0 1 25-25h0a25 25 0 0 1 15 6l264 211 264-212a26 26 0 0 1 16-5 25 25 0 0 1 25 25v875a43 43 0 0 1-42 44z m-350-493s-1 0-1 0-1 1 0 1l12 70a51 51 0 0 1-15 45l-51 50s0 0 0 1 0 1 1 1l70 10a51 51 0 0 1 39 28l31 64h0a1 1 0 0 0 2 0l32-64a51 51 0 0 1 38-28l71-10s0 0 0-1 0-1 0-1l-51-50a51 51 0 0 1-15-45l12-70s0-1 0-1 0 0-1 0l-63 33a51 51 0 0 1-47 0z" horiz-adv-x="1000" />

<glyph glyph-name="search" unicode="&#xe82d;" d="M991-100l-291 280a400 400 0 1 1-35-35l291-281a25 25 0 0 1 34 36z m-939 544a349 349 0 1 0 349-349 349 349 0 0 0-349 349z" horiz-adv-x="1000" />

<glyph glyph-name="setting" unicode="&#xe82e;" d="M502 543a200 200 0 1 1 200-200 200 200 0 0 1-200 200z m0-350a150 150 0 1 0 150 150 150 150 0 0 0-150-150z m418 120a58 58 0 0 1 51 63l-8 97a59 59 0 0 1-61 54l-77 6q-4 6-8 13l32 60a58 58 0 0 1-12 80l-77 60a58 58 0 0 1-81-9l-46-43q-10 4-20 7l-9 51a58 58 0 0 1-58 56h-98a58 58 0 0 1-58-56l-9-54-10-4-46 43a58 58 0 0 1-81 9l-78-60a58 58 0 0 1-12-80l33-61q-4-6-8-12l-81-6a58 58 0 0 1-61-54l-8-97a59 59 0 0 1 51-63l50-13q1-8 2-16l-55-53a58 58 0 0 1-12-81l56-80a58 58 0 0 1 79-16l42 20q9-9 20-18l-9-60a58 58 0 0 1 39-72l93-30a58 58 0 0 1 73 36l20 40a349 349 0 0 1 40-1l20-39a58 58 0 0 1 72-36l94 30a59 59 0 0 1 38 72l-8 54q14 11 27 23l38-18a58 58 0 0 1 80 15l56 80a58 58 0 0 1-13 80l-51 50q2 10 3 21z m-31-119l3-3a8 8 0 0 0 2-12l-56-80a8 8 0 0 0-12-2l-76 36-12-13a327 327 0 0 0-45-39l-13-9 13-86 1-4a8 8 0 0 0-6-10l-93-30a8 8 0 0 0-11 5l-37 75-17-2c-10-1-19-1-28-1a330 330 0 0 0-36 2l-17 2-37-72-1-3a8 8 0 0 0-11-6l-93 29a9 9 0 0 0-6 11l15 96-12 8a326 326 0 0 0-39 35l-12 14-76-36-3-2a8 8 0 0 0-7-2 8 8 0 0 0-5 4l-56 80a8 8 0 0 0 2 12l78 76-3 13a325 325 0 0 0-5 41l-1 18-87 22-4 1a8 8 0 0 0-8 9l9 98a8 8 0 0 0 3 6 8 8 0 0 0 6 2l2 0 112 8 6 12a325 325 0 0 0 20 32l9 13-48 89-2 4a9 9 0 0 0 2 12l77 59a8 8 0 0 0 12-1l74-70 15 7a325 325 0 0 0 35 12l15 5 14 87 0 4a9 9 0 0 0 9 8h98a9 9 0 0 0 8-8l14-89 16-4a323 323 0 0 0 45-15l15-7 71 66 2 3a9 9 0 0 0 13 2l77-60a9 9 0 0 0 1-11l-50-92 9-13a325 325 0 0 0 21-33l6-12 108-9 2 0a8 8 0 0 0 9-7l8-98a9 9 0 0 0-7-9l-87-22-1-18a325 325 0 0 0-7-45l-2-13z" horiz-adv-x="1000" />

<glyph glyph-name="share" unicode="&#xe82f;" d="M200 531a25 25 0 0 0 2 35l273 239a25 25 0 0 0 33 0l290-243a25 25 0 0 0-32-38l-250 208v-645a25 25 0 0 0-50 0v644l-231-203a25 25 0 0 0-35 3z m592-117h-38a25 25 0 0 1 0-50h38c28 0 52-29 52-64v-297c0-34-24-64-52-64h-584c-28 0-52 30-52 64v297c0 35 24 64 52 64h38a25 25 0 0 1 0 50h-38c-56 0-102-51-102-114v-297c0-63 46-114 102-114h584c56 0 102 51 102 114v297c1 63-45 114-102 114z" horiz-adv-x="1000" />

<glyph glyph-name="star-fill" unicode="&#xe830;" d="M819 224a48 48 0 0 1-14-42l34-197a98 98 0 0 0-142-103l-177 93a48 48 0 0 1-44 0l-177-93a98 98 0 0 0-142 103l34 197a48 48 0 0 1-14 42l-143 140a98 98 0 0 0 54 167l198 28a48 48 0 0 1 36 27l88 179a98 98 0 0 0 175 0l89-179a48 48 0 0 1 36-26l198-29a98 98 0 0 0 54-167z" horiz-adv-x="1000" />

<glyph glyph-name="star" unicode="&#xe831;" d="M745-124a98 98 0 0 0-46 11l-177 93a48 48 0 0 1-44 0l-177-93a98 98 0 0 0-142 103l34 197a48 48 0 0 1-14 42l-143 140a98 98 0 0 0 54 167l198 28a48 48 0 0 1 36 27l89 179h0a98 98 0 0 0 175 0l88-179a48 48 0 0 1 36-26l198-29a98 98 0 0 0 54-167l-143-140a48 48 0 0 1-14-42l34-197a98 98 0 0 0-96-114z m-245 160a98 98 0 0 0 46-12l177-93a48 48 0 0 1 69 50l-34 198a98 98 0 0 0 28 86l143 140a48 48 0 0 1-26 81l-198 29a98 98 0 0 0-74 53l-88 180a48 48 0 0 1-86 0l-88-180a98 98 0 0 0-74-53l-198-29a48 48 0 0 1-26-81l143-140a98 98 0 0 0 28-86l-34-198a48 48 0 0 1 70-50l177 93a98 98 0 0 0 45 12z" horiz-adv-x="1000" />

<glyph glyph-name="sticker" unicode="&#xe832;" d="M500-121a471 471 0 1 0 471 471 472 472 0 0 0-471-471z m0 892a421 421 0 1 1 421-421 421 421 0 0 1-421 421z m177-341h0a39 39 0 0 1-39-39h0a39 39 0 0 1 39-40h0a39 39 0 0 1 39 40h0a39 39 0 0 1-39 39z m-354 0h0a39 39 0 0 1-40-39h0a39 39 0 0 1 40-40h0a39 39 0 0 1 39 40h0a39 39 0 0 1-39 39z m387-223a25 25 0 1 1-42 29c-25-36-62-69-163-70-104 1-145 44-160 69a25 25 0 1 1-43-26c20-34 74-92 203-93 98 1 161 29 205 91z" horiz-adv-x="1000" />

<glyph glyph-name="storytelling" unicode="&#xe833;" d="M224 583a24 24 0 0 0 24 24h354a24 24 0 0 0 0-48h-354a24 24 0 0 0-24 24z m23-143h354a24 24 0 0 1 0 48h-354a24 24 0 1 1 0-48z m356-72h-355a24 24 0 1 1 0-48h355a24 24 0 0 1 0 48z m-179-120h-177a24 24 0 1 1 0-48h177a24 24 0 1 1 0 48z m482 389v-640a119 119 0 0 0-119-119h-433a119 119 0 0 0-107 66h-33a119 119 0 0 0-120 119v640a119 119 0 0 0 119 119h434a119 119 0 0 0 106-66h34a119 119 0 0 0 119-119z m-693-643h434a69 69 0 0 1 69 69v640a69 69 0 0 1-69 69h-434a69 69 0 0 1-69-69v-640a69 69 0 0 1 69-69z m643 643a69 69 0 0 1-69 69h-21c0-1 0-2 0-3v-640a119 119 0 0 0-119-119h-337a69 69 0 0 1 43-16h434a69 69 0 0 1 69 69z" horiz-adv-x="1000" />

<glyph glyph-name="swatch" unicode="&#xe834;" d="M235 151h-61a54 54 0 0 1-54-54v-61a54 54 0 0 1 54-54h61a54 54 0 0 1 54 54v61a54 54 0 0 1-54 54z m13-115a13 13 0 0 0-13-12h-61a13 13 0 0 0-12 12v61a13 13 0 0 0 12 13h61a13 13 0 0 0 13-13z m-13 336h-61a54 54 0 0 1-54-54v-61a54 54 0 0 1 54-54h61a54 54 0 0 1 54 54v61a54 54 0 0 1-54 54z m13-115a13 13 0 0 0-13-12h-61a13 13 0 0 0-12 12v61a13 13 0 0 0 12 13h61a13 13 0 0 0 13-13z m-13 331h-61a54 54 0 0 1-54-54v-61a54 54 0 0 1 54-54h61a54 54 0 0 1 54 54v61a54 54 0 0 1-54 54z m13-115a13 13 0 0 0-13-12h-61a13 13 0 0 0-12 12v61a13 13 0 0 0 12 13h61a13 13 0 0 0 13-13z m-75 196a31 31 0 1 0 32-31 31 31 0 0 0-32 31z m799-147v243a57 57 0 0 1-56 57h-830a58 58 0 0 1-58-58v-825a58 58 0 0 1 58-58h237a58 58 0 0 1 59 58v99l80-133a56 56 0 0 1 34-25 57 57 0 0 1 14-2 56 56 0 0 1 29 8l206 126a57 57 0 0 1 19 78l-48 80 47-25a56 56 0 0 1 27-7 57 57 0 0 1 50 30l113 215a57 57 0 0 1-24 76l-12 7a57 57 0 0 1 55 56z m-640-583a8 8 0 0 0-9-8h-237a8 8 0 0 0-8 8v825a8 8 0 0 0 8 8h237a8 8 0 0 0 9-8z m387 116l-206-126a6 6 0 0 0-5-1 6 6 0 0 0-4 3l-122 204v494l339-565a7 7 0 0 0-2-9z m189 351l-113-214a6 6 0 0 0-4-3 6 6 0 0 0-4 0l-121 64-257 427 497-265a7 7 0 0 0 2-9z m14 117a7 7 0 0 0-6-7h-93l-442 236v12a58 58 0 0 1 0 8h535a7 7 0 0 0 6-7z" horiz-adv-x="1000" />

<glyph glyph-name="tag" unicode="&#xe835;" d="M919 558h-221l38 262a25 25 0 1 1-50 7l-38-269h-240l37 262a25 25 0 0 1-49 7l-39-269h-239a25 25 0 1 1 0-50h232l-38-268h-231a25 25 0 1 1 0-50h224l-45-310a25 25 0 0 1 22-28 25 25 0 0 1 3 0 25 25 0 0 1 25 21l46 317h239l-44-310a25 25 0 0 1 21-28 25 25 0 0 1 4 0 25 25 0 0 1 25 21l45 317h236a25 25 0 0 1 0 50h-229l38 268h228a25 25 0 0 1 0 50z m-317-319h-240l39 269h240z" horiz-adv-x="1000" />

<glyph glyph-name="thum" unicode="&#xe836;" d="M428 419h-433v432h433z m-383 50h333v332h-333z m949-50h-433v432h433z m-383 50h333v332h-333z m-183-617h-433v433h433z m-383 50h333v333h-333z m949-50h-433v433h433z m-383 50h333v333h-333z" horiz-adv-x="1000" />

<glyph glyph-name="tile" unicode="&#xe837;" d="M993 418h-985v432h985z m-935 50h885v332h-885z m935-616h-985v432h985z m-935 50h885v332h-885z" horiz-adv-x="1000" />

<glyph glyph-name="time" unicode="&#xe838;" d="M500 822a472 472 0 1 1 472-472 472 472 0 0 1-472 472z m0-894a422 422 0 1 0 422 422 422 422 0 0 0-422-422z m25 725v-303a25 25 0 0 0 0-5c0-1-1-1-1-2a15 15 0 0 0-2-5c0-1-1-1-1-2a25 25 0 0 0-3-4l-128-127a25 25 0 0 0-35 35l120 120v293a25 25 0 0 0 50 0z" horiz-adv-x="1000" />

<glyph glyph-name="transform" unicode="&#xe839;" d="M986 611v223h-222v-86h-153v86h-222v-86h-153v86h-222v-223h88v-152h-88v-223h88v-150h-88v-222h222v86h153v-86h222v86h153v-86h222v222h-87v150h87v223h-87v152z m-172 173h122v-123h-122z m-375 0h122v-123h-122z m-375 0h122v-123h-122z m0-375h122v-123h-122z m122-495h-122v122h122z m375 0h-122v122h122z m375 0h-122v122h122z m0 372h-122v123h122z m-87 173h-85v-223h85v-150h-85v-86h-153v86h-222v-86h-153v86h-84v150h84v223h-84v152h84v87h153v-87h222v87h153v-87h85z m-329-84h105v-50h-105v-92h-50v92h-95v50h95v108h50z" horiz-adv-x="1000" />

<glyph glyph-name="twitter" unicode="&#xe83a;" d="M961 631a57 57 0 0 1-13 12l1 2a57 57 0 0 1-84 67 290 290 0 0 0-65-29 234 234 0 0 1-142 49 230 230 0 0 1-228-204 440 440 0 0 0-252 152 57 57 0 0 1-94-7 230 230 0 0 1-16-198 58 58 0 0 1-16-39v-3a231 231 0 0 1 62-158 57 57 0 0 1 1-32 230 230 0 0 1 76-110 295 295 0 0 0-109-8 57 57 0 0 1-38-105 547 547 0 0 1 296-87c206 0 336 98 408 180a567 567 0 0 1 141 365 407 407 0 0 1 76 85 57 57 0 0 1-4 68z m-37-40a357 357 0 0 0-75-82 25 25 0 0 1-10-20c0-2 0-4 0-6a516 516 0 0 0-128-337c-66-74-183-163-371-163a497 497 0 0 0-269 80 7 7 0 0 0 4 13h1a345 345 0 0 1 40-3 339 339 0 0 1 142 31 25 25 0 0 1 0 46 181 181 0 0 0-95 108 7 7 0 0 0 1 7 25 25 0 0 1-3 34 181 181 0 0 0-59 134v2a7 7 0 0 0 3 6l2 1a25 25 0 0 1 15 35 180 180 0 0 0 6 171 7 7 0 0 0 5 3 7 7 0 0 0 6-2 490 490 0 0 1 311-175 25 25 0 0 1 28 25v4a180 180 0 0 0 180 180 183 183 0 0 0 120-46 25 25 0 0 1 23-5 339 339 0 0 1 90 37 7 7 0 0 0 8-1 7 7 0 0 0 2-7 181 181 0 0 0-9-24 25 25 0 0 1 25-35 7 7 0 0 0 6-11z" horiz-adv-x="1000" />

<glyph glyph-name="up" unicode="&#xe83b;" d="M965 122l-446 490a26 26 0 0 1-37 0l-447-490a25 25 0 1 1 37-34l428 470 428-470a25 25 0 0 1 37 34z" horiz-adv-x="1000" />

<glyph glyph-name="upload-photo" unicode="&#xe83c;" d="M578 504a76 76 0 1 1-76 76 76 76 0 0 1 76-76z m0 102a26 26 0 1 0-26-26 26 26 0 0 0 26 26z m205-245v341a119 119 0 0 1-119 119h-515a119 119 0 0 1-119-119v-515a119 119 0 0 1 119-119h338a245 245 0 1 1 296 293z m-634 410h515a69 69 0 0 0 69-69v-334l-8 0a244 244 0 0 1-86-16l-94 88a25 25 0 0 1-32 2l-77-54-116 116a25 25 0 0 1-33 2l-207-167v363a69 69 0 0 0 69 69z m0-653a69 69 0 0 0-69 69v88l220 179 115-116a25 25 0 0 1 32-3l78 54 67-61a245 245 0 0 1-112-204c0-2 0-4 0-6z m576-189a195 195 0 0 0-93 366 24 24 0 0 1 29 13 195 195 0 1 0 64-379z m134 195a25 25 0 0 0-25-25h-84v-85a25 25 0 1 0-50 0v85h-84a25 25 0 0 0 0 50h84v84a25 25 0 0 0 50 0v-85h84a25 25 0 0 0 25-24z" horiz-adv-x="1000" />

<glyph glyph-name="upload-vdo" unicode="&#xe83d;" d="M598 456a61 61 0 0 1-31 52l-272 156a62 62 0 0 1-93-53v-324a61 61 0 0 1 32-54 61 61 0 0 1 62 2l273 167a61 61 0 0 1 29 54z m-56-11l-272-168a12 12 0 0 0-18 10v324a11 11 0 0 0 6 10 12 12 0 0 0 6 1 12 12 0 0 0 6-1l272-156a12 12 0 0 0 0-20z m225-84a25 25 0 0 1 1 6v330a119 119 0 0 1-120 120h-496a119 119 0 0 1-119-120v-496a119 119 0 0 1 119-120h329a25 25 0 0 1 8 2 244 244 0 1 1 278 278z m-615-230a69 69 0 0 0-69 69v497a69 69 0 0 0 69 70h496a69 69 0 0 0 69-69v-331a25 25 0 0 1 0-4 245 245 0 0 1-230-232 25 25 0 0 1-6 0z m579-206a194 194 0 1 0 194 194 195 195 0 0 0-194-194z m134 194a25 25 0 0 0-25-25h-84v-84a25 25 0 0 0-50 0v84h-84a25 25 0 0 0 0 50h84v84a25 25 0 0 0 50 0v-84h84a25 25 0 0 0 25-25z" horiz-adv-x="1000" />

<glyph glyph-name="upload" unicode="&#xe83e;" d="M859 176a25 25 0 1 0-35-35l-95 94v-222a25 25 0 1 0-50 0v222l-95-94a25 25 0 1 0-35 35l137 137a25 25 0 0 0 36 0z m-122-309a25 25 0 0 0-21-12h-621a89 89 0 0 0-90 89v762a89 89 0 0 0 90 89h403a25 25 0 0 0 18-7l218-218 1-1h0a25 25 0 0 0 7-17h0v-113a288 288 0 0 0-5-572z m-214 710h133l-133 133z m-428-672h464a288 288 0 0 0 133 536v86h-194a25 25 0 0 0-25 25v193h-378a39 39 0 0 1-40-39v-762a39 39 0 0 1 40-39z m847 248a238 238 0 1 1-238-238 238 238 0 0 1 238 238z" horiz-adv-x="1000" />

<glyph glyph-name="vdo" unicode="&#xe83f;" d="M677 407l-295 170a65 65 0 0 1-98-57v-351a64 64 0 0 1 34-57 64 64 0 0 1 65 2l296 182a65 65 0 0 1-2 111z m-24-69l-296-182a15 15 0 0 0-23 13v351a15 15 0 0 0 8 13 15 15 0 0 0 7 2 15 15 0 0 0 8-2l296-169a15 15 0 0 0 0-26z m190 478h-692a125 125 0 0 1-125-125v-693a125 125 0 0 1 125-125h692a125 125 0 0 1 125 125v693a125 125 0 0 1-125 125z m75-818a75 75 0 0 0-75-75h-692a75 75 0 0 0-75 75v693a75 75 0 0 0 75 75h692a75 75 0 0 0 75-75z" horiz-adv-x="1000" />

<glyph glyph-name="view" unicode="&#xe840;" d="M970 269a427 427 0 0 1-99 142 467 467 0 0 1-36 32l81 80a25 25 0 1 1-35 35l-88-86a509 509 0 0 1-174 67l38 128a25 25 0 0 1-48 14l-40-134a654 654 0 0 1-70 4 634 634 0 0 1-126-12c0 0 0 1 0 1l-51 124a25 25 0 0 1-46-19l49-119a485 485 0 0 1-147-72l-111 73a25 25 0 1 1-27-41l97-65a425 425 0 0 1-105-144 25 25 0 0 1 2-22c7-11 169-254 467-254s459 236 466 246a25 25 0 0 1 3 22z m-469-218c-237 0-384 175-417 220 23 49 128 230 415 230 123 0 213-34 278-77 0-1 1-1 1-2a25 25 0 0 1 10-6 405 405 0 0 0 130-152c-35-45-181-213-417-213z m0 433a205 205 0 1 1 205-205 205 205 0 0 1-205 204z m0-361a155 155 0 1 0 155 156 155 155 0 0 0-155-156z" horiz-adv-x="1000" />

<glyph glyph-name="wrong" unicode="&#xe841;" d="M973-52a50 50 0 0 0-71-71l-404 405-405-405a50 50 0 0 0-70 71l404 404-404 405a50 50 0 1 0 70 70l405-404 404 404a50 50 0 0 0 71-70l-404-405z" horiz-adv-x="1000" />

<glyph glyph-name="youtube" unicode="&#xe842;" d="M675 411l-250 143a58 58 0 0 1-88-51v-296a58 58 0 0 1 30-52 58 58 0 0 1 60 2h0l249 153a58 58 0 0 1-1 101z m-25-58l-249-154h0a8 8 0 0 0-14 8v296a8 8 0 0 0 5 8 9 9 0 0 0 4 1 8 8 0 0 0 4-1l250-143a8 8 0 0 0 0-15z m64 374h-428a258 258 0 0 1-257-258v-238a258 258 0 0 1 257-258h428a258 258 0 0 1 257 258v238a258 258 0 0 1-257 258z m207-496a208 208 0 0 0-207-208h-428a208 208 0 0 0-207 208v238a208 208 0 0 0 207 208h428a208 208 0 0 0 207-208z" horiz-adv-x="1000" />
</font>
</defs>
</svg>
